<svg width="25" height="24" viewBox="0 0 25 24" fill="none" xmlns="http://www.w3.org/2000/svg">
<path d="M2.48779 12C2.48779 9.2 4.68779 7 7.48779 7C10.2878 7 12.4878 9.2 12.4878 12M2.48779 12C2.48779 17.5228 6.96495 22 12.4878 22C18.0106 22 22.4878 17.5228 22.4878 12M2.48779 12C2.48779 6.47715 6.96495 2 12.4878 2C18.0106 2 22.4878 6.47715 22.4878 12M12.4878 12C12.4878 14.8 14.6878 17 17.4878 17C20.2878 17 22.4878 14.8 22.4878 12M12.4878 12C11.3341 11.337 9.96417 11.1593 8.67954 11.5062C7.39492 11.8532 6.30073 12.6962 5.63769 13.8499C4.97465 15.0036 4.79707 16.3734 5.14401 17.6581C5.49095 18.9427 6.334 20.0369 7.48769 20.6999M12.4878 12C13.0525 12.3283 13.6762 12.5421 14.3235 12.6293C14.9709 12.7165 15.629 12.6754 16.2605 12.5082C16.8919 12.3411 17.4843 12.0512 18.0037 11.6551C18.5231 11.2591 18.9594 10.7646 19.2877 10.1999C19.616 9.63522 19.8299 9.0114 19.9171 8.36406C20.0043 7.71673 19.9632 7.05855 19.796 6.42711C19.6289 5.79567 19.339 5.20334 18.9429 4.68393C18.5469 4.16452 18.0524 3.72821 17.4877 3.3999M7.48779 3.29992C8.62822 2.63688 9.98534 2.45403 11.2606 2.7916C12.5358 3.12916 13.6248 3.95949 14.2878 5.09992C14.9508 6.24035 15.1337 7.59747 14.7961 8.87271C14.4586 10.148 13.6282 11.2369 12.4878 11.8999C11.3474 12.563 10.517 13.6519 10.1795 14.9271C9.8419 16.2024 10.0248 17.5595 10.6878 18.6999C11.3508 19.8404 12.4398 20.6707 13.715 21.0082C14.9902 21.3458 16.3474 21.163 17.4878 20.4999" stroke="#09090B" stroke-linecap="round" stroke-linejoin="round"/>
</svg>
