<svg width="24" height="25" viewBox="0 0 24 25" fill="none" xmlns="http://www.w3.org/2000/svg">
<path d="M2 12.5C2 9.7 4.2 7.5 7 7.5C9.8 7.5 12 9.7 12 12.5M2 12.5C2 18.0228 6.47715 22.5 12 22.5C17.5228 22.5 22 18.0228 22 12.5M2 12.5C2 6.97715 6.47715 2.5 12 2.5C17.5228 2.5 22 6.97715 22 12.5M12 12.5C12 15.3 14.2 17.5 17 17.5C19.8 17.5 22 15.3 22 12.5M12 12.5C10.8463 11.837 9.47638 11.6593 8.19175 12.0062C6.90713 12.3532 5.81294 13.1962 5.1499 14.3499C4.48686 15.5036 4.30928 16.8734 4.65622 18.1581C5.00316 19.4427 5.84621 20.5369 6.9999 21.1999M12 12.5C12.5647 12.8283 13.1884 13.0421 13.8357 13.1293C14.4831 13.2165 15.1413 13.1754 15.7727 13.0082C16.4041 12.8411 16.9965 12.5512 17.5159 12.1551C18.0353 11.7591 18.4716 11.2646 18.7999 10.6999C19.1282 10.1352 19.3421 9.5114 19.4293 8.86406C19.5165 8.21673 19.4754 7.55855 19.3082 6.92711C19.1411 6.29567 18.8512 5.70334 18.4551 5.18393C18.0591 4.66452 17.5646 4.22821 16.9999 3.8999M7 3.79992C8.14043 3.13688 9.49754 2.95403 10.7728 3.2916C12.048 3.62916 13.137 4.45949 13.8 5.59992C14.463 6.74035 14.6459 8.09747 14.3083 9.37271C13.9708 10.648 13.1404 11.7369 12 12.3999C10.8596 13.063 10.0292 14.1519 9.69167 15.4271C9.35411 16.7024 9.53696 18.0595 10.2 19.1999C10.863 20.3404 11.952 21.1707 13.2272 21.5082C14.5025 21.8458 15.8596 21.663 17 20.9999" stroke="white" stroke-width="2" stroke-linecap="round" stroke-linejoin="round"/>
</svg>
