<svg width="216" height="51" viewBox="0 0 216 51" fill="none" xmlns="http://www.w3.org/2000/svg">
<path d="M3.66663 22C3.66663 16.8667 7.69996 12.8334 12.8333 12.8334C17.9666 12.8334 22 16.8667 22 22M3.66663 22C3.66663 32.1252 11.8747 40.3334 22 40.3334C32.1252 40.3334 40.3333 32.1252 40.3333 22M3.66663 22C3.66663 11.8748 11.8747 3.66669 22 3.66669C32.1252 3.66669 40.3333 11.8748 40.3333 22M22 22C22 27.1334 26.0333 31.1667 31.1666 31.1667C36.3 31.1667 40.3333 27.1334 40.3333 22M22 22C19.8849 20.7844 17.3733 20.4587 15.0182 21.0948C12.663 21.7308 10.657 23.2764 9.44144 25.3915C8.22586 27.5066 7.9003 30.018 8.53636 32.3731C9.17242 34.7283 10.718 36.7343 12.8331 37.9498M22 22C23.0352 22.6019 24.1787 22.9938 25.3655 23.1537C26.5523 23.3136 27.7589 23.2382 28.9166 22.9318C30.0742 22.6253 31.1601 22.0939 32.1124 21.3678C33.0646 20.6417 33.8645 19.7351 34.4664 18.6998C35.0683 17.6646 35.4604 16.5209 35.6203 15.3341C35.7802 14.1474 35.7048 12.9407 35.3984 11.7831C35.0919 10.6254 34.5605 9.53947 33.8344 8.58722C33.1083 7.63497 32.2017 6.83507 31.1664 6.23317M12.8333 6.04988C14.9241 4.8343 17.4121 4.49908 19.7501 5.11795C22.088 5.73682 24.0844 7.25909 25.3 9.34988C26.5155 11.4407 26.8508 13.9287 26.2319 16.2667C25.613 18.6046 24.0907 20.601 22 21.8165C19.9092 23.0321 18.3869 25.0285 17.768 27.3664C17.1492 29.7044 17.4844 32.1924 18.7 34.2832C19.9155 36.374 21.9119 37.8963 24.2498 38.5151C26.5878 39.134 29.0758 38.7988 31.1666 37.5832" stroke="#09090B" stroke-width="3" stroke-linecap="round" stroke-linejoin="round"/>
<path d="M87.7265 16.3672H79.9495C79.8074 15.361 79.5174 14.4673 79.0795 13.6861C78.6415 12.893 78.0792 12.2183 77.3927 11.6619C76.7061 11.1056 75.913 10.6794 75.0134 10.3835C74.1256 10.0876 73.1609 9.93963 72.1192 9.93963C70.2371 9.93963 68.5977 10.4072 67.2009 11.3423C65.8041 12.2656 64.721 13.6151 63.9516 15.3906C63.1822 17.1544 62.7975 19.2969 62.7975 21.8182C62.7975 24.4105 63.1822 26.5885 63.9516 28.3523C64.7329 30.116 65.8219 31.4477 67.2187 32.3473C68.6154 33.2469 70.2312 33.6967 72.066 33.6967C73.0958 33.6967 74.0487 33.5606 74.9246 33.2884C75.8124 33.0161 76.5996 32.6196 77.2861 32.0987C77.9727 31.5661 78.5409 30.9209 78.9907 30.1634C79.4523 29.4058 79.7719 28.5417 79.9495 27.571L87.7265 27.6065C87.5252 29.2756 87.0222 30.8854 86.2172 32.4361C85.4242 33.9749 84.3529 35.3539 83.0035 36.5732C81.6659 37.7805 80.0679 38.7393 78.2094 39.4496C76.3628 40.148 74.2736 40.4972 71.9417 40.4972C68.6983 40.4972 65.7982 39.7633 63.2414 38.2955C60.6964 36.8277 58.6841 34.7029 57.2045 31.9212C55.7367 29.1394 55.0028 25.7718 55.0028 21.8182C55.0028 17.8527 55.7485 14.4792 57.24 11.6974C58.7314 8.91572 60.7556 6.79687 63.3124 5.34091C65.8692 3.87311 68.7457 3.1392 71.9417 3.1392C74.0487 3.1392 76.0018 3.43513 77.801 4.02699C79.6121 4.61884 81.2161 5.48295 82.6128 6.61932C84.0096 7.74384 85.146 9.12287 86.0219 10.7564C86.9097 12.3899 87.4779 14.2602 87.7265 16.3672ZM100.661 3.63636V40H93.0976V3.63636H100.661ZM114.498 40.5149C112.758 40.5149 111.207 40.2131 109.846 39.6094C108.484 38.9938 107.407 38.0883 106.614 36.8928C105.833 35.6854 105.442 34.1821 105.442 32.3828C105.442 30.8677 105.72 29.5952 106.277 28.5653C106.833 27.5355 107.591 26.7069 108.549 26.0795C109.508 25.4522 110.597 24.9787 111.816 24.6591C113.048 24.3395 114.338 24.1146 115.687 23.9844C117.273 23.8187 118.552 23.6648 119.522 23.5227C120.493 23.3688 121.197 23.1439 121.635 22.848C122.073 22.5521 122.292 22.1141 122.292 21.5341V21.4276C122.292 20.303 121.937 19.433 121.227 18.8175C120.529 18.2019 119.534 17.8942 118.244 17.8942C116.883 17.8942 115.8 18.196 114.995 18.7997C114.19 19.3916 113.657 20.1373 113.397 21.0369L106.401 20.4688C106.756 18.8116 107.455 17.3793 108.496 16.1719C109.538 14.9527 110.881 14.0175 112.527 13.3665C114.184 12.7036 116.102 12.3722 118.28 12.3722C119.795 12.3722 121.245 12.5497 122.63 12.9048C124.026 13.2599 125.263 13.8104 126.341 14.5561C127.43 15.3018 128.288 16.2607 128.915 17.4325C129.543 18.5926 129.856 19.9834 129.856 21.6051V40H122.683V36.218H122.47C122.032 37.0703 121.446 37.822 120.712 38.473C119.978 39.1122 119.096 39.6153 118.066 39.9822C117.037 40.3374 115.847 40.5149 114.498 40.5149ZM116.664 35.2947C117.776 35.2947 118.759 35.0758 119.611 34.6378C120.464 34.188 121.132 33.5843 121.618 32.8267C122.103 32.0691 122.346 31.2109 122.346 30.2521V27.358C122.109 27.5118 121.783 27.6539 121.369 27.7841C120.967 27.9025 120.511 28.0149 120.002 28.1214C119.493 28.2161 118.984 28.3049 118.475 28.3878C117.966 28.4588 117.504 28.5239 117.09 28.5831C116.202 28.7133 115.427 28.9205 114.764 29.2045C114.101 29.4886 113.586 29.8733 113.219 30.3587C112.852 30.8321 112.669 31.424 112.669 32.1342C112.669 33.1641 113.042 33.9512 113.787 34.4957C114.545 35.0284 115.504 35.2947 116.664 35.2947ZM135.725 40V12.7273H143.058V17.4858H143.342C143.839 15.7931 144.673 14.5147 145.845 13.6506C147.017 12.7746 148.367 12.3366 149.894 12.3366C150.272 12.3366 150.681 12.3603 151.119 12.4077C151.557 12.455 151.941 12.5201 152.273 12.603V19.3146C151.918 19.2081 151.426 19.1134 150.799 19.0305C150.172 18.9477 149.598 18.9062 149.077 18.9062C147.964 18.9062 146.97 19.1489 146.094 19.6342C145.23 20.1077 144.543 20.7706 144.034 21.6229C143.537 22.4751 143.288 23.4576 143.288 24.5703V40H135.725ZM156.184 40V12.7273H163.747V40H156.184ZM159.983 9.21165C158.859 9.21165 157.894 8.83878 157.089 8.09304C156.296 7.33546 155.899 6.42992 155.899 5.37642C155.899 4.33475 156.296 3.44105 157.089 2.69531C157.894 1.93774 158.859 1.55895 159.983 1.55895C161.108 1.55895 162.067 1.93774 162.86 2.69531C163.665 3.44105 164.067 4.33475 164.067 5.37642C164.067 6.42992 163.665 7.33546 162.86 8.09304C162.067 8.83878 161.108 9.21165 159.983 9.21165ZM184.313 12.7273V18.4091H167.889V12.7273H184.313ZM171.618 6.19318H179.182V31.6193C179.182 32.3177 179.288 32.8622 179.501 33.2528C179.714 33.6316 180.01 33.898 180.389 34.0518C180.78 34.2057 181.229 34.2827 181.738 34.2827C182.093 34.2827 182.449 34.2531 182.804 34.1939C183.159 34.1229 183.431 34.0696 183.62 34.0341L184.81 39.6626C184.431 39.781 183.899 39.9171 183.212 40.071C182.526 40.2367 181.691 40.3374 180.709 40.3729C178.886 40.4439 177.288 40.2012 175.915 39.6449C174.553 39.0885 173.494 38.2244 172.736 37.0526C171.979 35.8807 171.606 34.401 171.618 32.6136V6.19318ZM193.91 50.2273C192.951 50.2273 192.051 50.1503 191.211 49.9964C190.382 49.8544 189.696 49.6709 189.151 49.446L190.856 43.7997C191.744 44.072 192.543 44.2199 193.253 44.2436C193.975 44.2673 194.596 44.1016 195.117 43.7464C195.65 43.3913 196.082 42.7876 196.413 41.9354L196.857 40.7812L187.074 12.7273H195.028L200.675 32.7557H200.959L206.658 12.7273H214.666L204.066 42.9474C203.557 44.4152 202.865 45.6937 201.989 46.7827C201.125 47.8835 200.03 48.7299 198.704 49.3217C197.378 49.9254 195.78 50.2273 193.91 50.2273Z" fill="#09090B"/>
</svg>
